<svg xmlns="http://www.w3.org/2000/svg" data-name="Layer 1" viewBox="0 0 32 32"><path fill="#fe9526" d="M31.5 20.25h-2v-3.764a9.472 9.472 0 0 1 1-4.236 9.472 9.472 0 0 1 1 4.236Z" class="color8b8891 svgShape"/><path fill="#53d86a" d="M31 13.482a9.457 9.457 0 0 0-.5-1.232 9.472 9.472 0 0 0-1 4.236v3.764h1v-3.764a9.463 9.463 0 0 1 .5-3.004Z" class="color58565d svgShape"/><path fill="#fe9526" d="M24.5 16.25h-2v-3.764a9.472 9.472 0 0 1 1-4.236 9.472 9.472 0 0 1 1 4.236Z" class="color8b8891 svgShape"/><path fill="#53d86a" d="M24 9.482a9.457 9.457 0 0 0-.5-1.232 9.472 9.472 0 0 0-1 4.236v3.764h1v-3.764a9.463 9.463 0 0 1 .5-3.004Z" class="color58565d svgShape"/><path fill="#fe9526" d="M.5 20.25h2v-3.764a9.472 9.472 0 0 0-1-4.236 9.472 9.472 0 0 0-1 4.236Z" class="color8b8891 svgShape"/><path fill="#53d86a" d="M2 13.482a9.457 9.457 0 0 0-.5-1.232 9.472 9.472 0 0 0-1 4.236v3.764h1v-3.764a9.463 9.463 0 0 1 .5-3.004Z" class="color58565d svgShape"/><path fill="#fe9526" d="M7.5 16.25h2v-3.764a9.472 9.472 0 0 0-1-4.236 9.472 9.472 0 0 0-1 4.236Z" class="color8b8891 svgShape"/><path fill="#53d86a" d="M9 9.482a9.457 9.457 0 0 0-.5-1.232 9.472 9.472 0 0 0-1 4.236v3.764h1v-3.764A9.463 9.463 0 0 1 9 9.482Z" class="color58565d svgShape"/><path fill="#595bd4" d="M19.5 19.84v2.463a.5.5 0 0 0 .222.415l6.556 4.383a.5.5 0 0 1 .222.416v2.143a.5.5 0 0 1-.582.493l-5.306-.884a.5.5 0 0 1-.205-.084l-1.398-.979a.5.5 0 0 0-.748.218l-.633 1.518a.5.5 0 0 1-.461.308h-2.334a.5.5 0 0 1-.461-.308l-.633-1.518a.5.5 0 0 0-.748-.218l-1.398.979a.5.5 0 0 1-.205.084l-5.306.884a.5.5 0 0 1-.582-.493v-2.143a.5.5 0 0 1 .222-.415l6.556-4.383a.5.5 0 0 0 .222-.416V19.84a.5.5 0 0 0-.582-.493L1.082 21.153A.5.5 0 0 1 .5 20.66v-3.08a.5.5 0 0 1 .304-.46l11.382-4.837a.491.491 0 0 0 .303-.467A19.134 19.134 0 0 1 13.3 5.79c.06-.19.12-.37.18-.55A19.38 19.38 0 0 1 15.585.865a.499.499 0 0 1 .837-.01A18.588 18.588 0 0 1 18.56 5.21c.07.2.14.4.2.61a18.79 18.79 0 0 1 .755 5.991.492.492 0 0 0 .303.474l11.378 4.836a.5.5 0 0 1 .304.46v3.079a.5.5 0 0 1-.582.493l-10.836-1.806a.5.5 0 0 0-.582.493Z" class="color3f6db4 svgShape"/><path fill="#167ffc" d="M6.5 28.517a.5.5 0 0 1 .222-.415l6.556-4.383a.5.5 0 0 0 .222-.416V20.84a.5.5 0 0 0-.582-.493l-.418.07v1.886a.5.5 0 0 1-.222.416l-6.556 4.383a.5.5 0 0 0-.222.415v2.143a.5.5 0 0 0 .582.493l.418-.07zm-5-9.936a.5.5 0 0 1 .304-.46l11.382-4.838a.491.491 0 0 0 .303-.467A19.135 19.135 0 0 1 14.3 6.79c.06-.19.12-.37.18-.55a19.38 19.38 0 0 1 2.105-4.375.49.49 0 0 1 .337-.212c-.17-.285-.338-.555-.5-.798a.499.499 0 0 0-.837.01A19.38 19.38 0 0 0 13.48 5.24c-.06.18-.12.36-.18.55a19.135 19.135 0 0 0-.81 6.026.491.491 0 0 1-.304.467L.804 17.121a.5.5 0 0 0-.304.46v3.079a.5.5 0 0 0 .582.493l.418-.07z" class="color1f53a4 svgShape"/><path fill="#fe9526" d="m18.56 5.21-.06.04a3.625 3.625 0 0 1-5 0l-.02-.01A19.37 19.37 0 0 1 16 .25a18.506 18.506 0 0 1 2.56 4.96Z" class="color8b8891 svgShape"/><path fill="#53d86a" d="M16.803 1.47c-.28-.46-.556-.88-.803-1.22a19.37 19.37 0 0 0-2.52 4.99l.02.01a3.783 3.783 0 0 0 1.068.698 19.197 19.197 0 0 1 2.235-4.479Z" class="color58565d svgShape"/><path fill="#167ffc" d="M16 31.75a.5.5 0 0 1-.5-.5v-11a.5.5 0 0 1 1 0v11a.5.5 0 0 1-.5.5Z" class="color1f53a4 svgShape"/><rect width="3" height="7" x="14.5" y="8.25" fill="#fe9526" class="color8b8891 svgShape" rx=".5"/><path fill="#53d86a" d="M15.5 14.75v-6a.5.5 0 0 1 .5-.5h-1a.5.5 0 0 0-.5.5v6a.5.5 0 0 0 .5.5h1a.5.5 0 0 1-.5-.5Z" class="color58565d svgShape"/></svg>